<svg width="32" height="33" viewBox="0 0 32 33" fill="none" xmlns="http://www.w3.org/2000/svg">
<path d="M16.0004 9.57281C12.376 9.57281 9.44043 12.5083 9.44043 16.1328C9.44043 19.7573 12.376 22.6928 16.0004 22.6928C19.6249 22.6928 22.5604 19.7573 22.5604 16.1328C22.5604 12.5083 19.6199 9.57281 16.0004 9.57281ZM16.0004 20.3913C13.649 20.3913 11.7419 18.4842 11.7419 16.1328C11.7419 13.7814 13.649 11.8743 16.0004 11.8743C18.3518 11.8743 20.2589 13.7814 20.2589 16.1328C20.2589 18.4842 18.3518 20.3913 16.0004 20.3913Z" fill="#131214"/>
<path d="M21.2792 3.41346C18.9241 3.30346 13.0888 3.30846 10.7337 3.41346C8.65856 3.51346 6.83347 4.01347 5.3584 5.48348C2.89827 7.94851 3.21329 11.2635 3.21329 16.1286C3.21329 21.1086 2.93828 24.3487 5.3584 26.7737C7.82852 29.2437 11.1937 28.9187 16.0039 28.9187C20.9342 28.9187 22.6393 28.9237 24.3843 28.2487C26.7545 27.3287 28.5445 25.2087 28.7196 21.4036C28.8296 19.0486 28.8246 13.2136 28.7196 10.8585C28.5095 6.36349 26.0944 3.63846 21.2792 3.41346ZM25.0044 25.1437C23.3893 26.7587 21.1492 26.6137 15.9689 26.6137C10.6337 26.6137 8.49855 26.6937 6.93347 25.1287C5.13839 23.3387 5.4634 20.4686 5.4634 16.1136C5.4634 10.2185 4.85837 5.97349 10.7737 5.67348C12.1337 5.62348 12.5338 5.60848 15.9539 5.60848L16.0039 5.63848C21.6892 5.63848 26.1494 5.04348 26.4144 10.9585C26.4744 12.3086 26.4894 12.7136 26.4894 16.1286C26.4894 21.3986 26.5895 23.5537 25.0044 25.1437Z" fill="#131214"/>
<path d="M22.8003 10.8528C23.6397 10.8528 24.3203 10.1723 24.3203 9.33284C24.3203 8.49336 23.6397 7.81284 22.8003 7.81284C21.9608 7.81284 21.2803 8.49336 21.2803 9.33284C21.2803 10.1723 21.9608 10.8528 22.8003 10.8528Z" fill="#131214"/>
</svg>
