<svg width="32" height="33" viewBox="0 0 32 33" fill="none" xmlns="http://www.w3.org/2000/svg">
<path d="M26.11 3.86719H7.49C5.565 3.86719 4 5.43219 4 7.35719V25.9772C4 27.9022 5.565 29.4672 7.49 29.4672H26.11C28.04 29.4672 29.6 27.9022 29.6 25.9772V7.35719C29.6 5.43219 28.035 3.86719 26.11 3.86719ZM12.725 24.1272C12.725 24.4272 12.485 24.6672 12.185 24.6672H9.885C9.585 24.6672 9.345 24.4272 9.345 24.1272C9.345 24.1272 9.345 24.1272 9.345 24.1222V14.4872C9.345 14.1872 9.585 13.9472 9.885 13.9472H12.185C12.485 13.9472 12.725 14.1922 12.725 14.4872V24.1272ZM11.035 13.0322C9.83 13.0322 8.855 12.0572 8.855 10.8522C8.855 9.64719 9.83 8.66719 11.035 8.66719C12.24 8.66719 13.215 9.64219 13.215 10.8472C13.215 12.0522 12.24 13.0322 11.035 13.0322ZM24.75 24.1622C24.75 24.4372 24.53 24.6572 24.255 24.6572C24.255 24.6572 24.255 24.6572 24.25 24.6572H21.775C21.5 24.6572 21.28 24.4372 21.28 24.1622C21.28 24.1622 21.28 24.1622 21.28 24.1572V19.6422C21.28 18.9672 21.48 16.6872 19.515 16.6872C17.995 16.6872 17.685 18.2472 17.625 18.9472V24.1622C17.625 24.4322 17.405 24.6572 17.135 24.6572H14.745C14.47 24.6572 14.25 24.4372 14.25 24.1622V14.4422C14.25 14.1672 14.47 13.9472 14.745 13.9472H17.135C17.41 13.9472 17.63 14.1722 17.63 14.4422V15.2822C18.195 14.4322 19.03 13.7822 20.815 13.7822C24.77 13.7822 24.74 17.4722 24.74 19.5022L24.75 24.1622Z" fill="#131214"/>
</svg>
