<svg width="32" height="33" viewBox="0 0 32 33" fill="none" xmlns="http://www.w3.org/2000/svg">
<path d="M21.0749 3.33276C21.2125 3.88293 21.2125 4.4331 21.35 4.98326C22.0377 7.32147 23.9633 9.10951 26.4391 9.38459L26.9892 9.52213V12.8231C26.9892 13.5108 26.9892 13.6484 26.3015 13.5108C24.651 13.3733 23.0005 12.8231 21.4876 11.9979C21.35 11.9979 21.2125 11.8603 21.0749 11.8603V12.4105C21.0749 15.0238 21.0749 17.4995 21.0749 20.1128C21.0749 22.7261 19.9746 25.3394 17.9115 26.9899C16.3985 28.3653 14.1979 29.053 12.1347 28.9155C9.10882 28.6404 6.49553 26.5773 5.67028 23.6889C5.3952 22.7261 5.25766 21.7633 5.12012 20.8005C5.12012 17.0869 7.59587 13.9235 11.0344 12.9607C11.7221 12.8231 12.4098 12.6856 13.0975 12.6856C13.3726 12.6856 13.6477 12.6856 13.9228 12.6856V13.2358C13.9228 14.3361 13.9228 15.2989 13.9228 16.3992C13.9228 16.6743 13.7852 16.9494 13.5102 17.0869C12.8224 17.2245 12.1347 17.4995 11.447 17.7746C9.65899 18.3248 8.6962 20.3879 9.24636 22.176C9.3839 22.451 9.52145 22.7261 9.65899 23.0012C10.4842 24.3766 12.1347 25.2019 13.7852 24.9268C15.4357 24.5142 16.5361 23.1387 16.6736 21.4882C16.8111 20.3879 16.8111 19.4251 16.8111 18.3248C16.8111 13.5108 16.8111 8.55934 16.8111 3.74539L21.0749 3.33276Z" fill="white"/>
</svg>
