<svg width="32" height="33" viewBox="0 0 32 33" fill="none" xmlns="http://www.w3.org/2000/svg">
<path d="M19.1553 5.86291C16.8345 6.73318 15.3841 8.90887 15.5291 11.2296V12.0999L14.6588 11.9548C11.3228 11.5197 8.42185 10.0692 5.81102 7.60346L4.7957 6.44309L4.36056 7.31337C3.63533 9.34401 4.07047 11.3747 5.52093 12.8251C6.24616 13.5503 6.10112 13.6954 4.7957 13.2603C4.36056 13.1152 3.92543 12.9702 3.92543 13.1152C3.92543 13.2603 4.36056 15.0008 4.65066 15.581C5.08579 16.4513 6.10111 17.4666 7.11644 17.9017L7.98671 18.3369H6.97139C5.95607 18.3369 5.95607 18.3369 5.95607 18.772C6.39121 19.9324 7.84167 21.2378 9.43717 21.818L10.5975 22.2531L9.58222 22.8333C8.13176 23.7036 6.39121 24.1387 4.65066 24.2837C3.78038 24.2837 3.2002 24.4288 3.2002 24.4288C3.2002 24.5738 5.52093 25.5892 6.82635 26.0243C10.7426 27.1847 15.3841 26.7495 18.8652 24.5738C21.3309 23.1234 23.7967 20.2225 24.9571 17.3215C25.5373 15.8711 26.2625 13.1152 26.2625 11.6647C26.2625 10.7945 26.2625 10.6494 27.4229 9.6341C28.0031 9.05392 28.5832 8.32869 28.7283 8.18364C28.8733 7.89355 28.8733 7.89355 28.0031 8.18364C26.2625 8.90887 26.1175 8.90887 26.8427 8.0386C27.4229 7.45841 28.1481 6.29805 28.1481 6.00795C28.1481 6.00795 27.858 6.00795 27.5679 6.153C27.2778 6.29805 26.5526 6.58814 25.9724 6.73318L24.9571 7.02327L24.0868 6.44309C23.6517 6.153 22.9265 5.71786 22.4913 5.57281C21.476 5.57281 20.0255 5.57281 19.1553 5.86291Z" fill="currentColor"/>
</svg>
