<svg width="32" height="33" viewBox="0 0 32 33" fill="none" xmlns="http://www.w3.org/2000/svg">
<path d="M28.2638 9.9786C27.9677 8.88192 27.1031 8.01738 26.0064 7.72119C24.0052 7.17285 15.9922 7.17285 15.9922 7.17285C15.9922 7.17285 7.98318 7.17285 5.97793 7.70118C4.90126 7.99737 4.0167 8.88192 3.72052 9.9786C3.2002 11.9799 3.2002 16.1344 3.2002 16.1344C3.2002 16.1344 3.2002 20.3091 3.72853 22.2903C4.02471 23.387 4.88925 24.2515 5.98593 24.5477C8.0112 25.096 16.0002 25.096 16.0002 25.096C16.0002 25.096 24.0092 25.096 26.0144 24.5677C27.1111 24.2715 27.9757 23.407 28.2718 22.3103C28.8002 20.3091 28.8002 16.1545 28.8002 16.1545C28.8002 16.1545 28.8122 11.9799 28.2638 9.9786ZM13.4426 19.9688V12.296L20.1067 16.1344L13.4426 19.9688Z" fill="white"/>
</svg>
