<?xml version="1.0" standalone="no"?>
<!DOCTYPE svg PUBLIC "-//W3C//DTD SVG 20010904//EN"
 "http://www.w3.org/TR/2001/REC-SVG-20010904/DTD/svg10.dtd">
<svg version="1.0" xmlns="http://www.w3.org/2000/svg"
 width="321.000000pt" height="321.000000pt" viewBox="0 0 321.000000 321.000000"
 preserveAspectRatio="xMidYMid meet">
<metadata>
Created by potrace 1.14, written by Peter Selinger 2001-2017
</metadata>
<g transform="translate(0.000000,321.000000) scale(0.100000,-0.100000)"
fill="#000000" stroke="none">
<path d="M1963 3188 c-6 -7 -22 -62 -37 -123 -15 -60 -28 -117 -30 -125 -2 -8
-99 -397 -215 -865 -116 -467 -215 -866 -221 -885 -32 -112 -132 -530 -133
-553 0 -16 6 -33 14 -38 8 -5 118 -9 245 -9 229 0 231 0 242 23 6 12 34 114
62 227 28 113 56 210 61 216 15 18 506 16 524 -2 11 -12 21 -56 41 -189 3 -16
7 -37 9 -45 2 -8 6 -33 10 -55 3 -22 12 -83 21 -135 8 -52 17 -106 19 -120 14
-88 33 -204 42 -250 3 -19 7 -45 8 -58 1 -13 7 -28 13 -34 7 -7 105 -46 219
-89 154 -57 219 -76 253 -75 41 1 45 3 45 26 -1 24 -23 193 -31 235 -2 11 -8
47 -13 80 -5 33 -21 134 -35 224 -14 90 -28 178 -30 195 -4 24 -67 436 -91
586 -2 14 -15 99 -29 190 -15 91 -33 208 -41 260 -16 98 -20 124 -30 200 -3
25 -10 68 -15 95 -6 28 -12 66 -14 85 -3 19 -11 78 -20 130 -8 52 -18 115 -21
140 -7 52 -12 84 -25 160 -11 68 -20 124 -26 170 -2 19 -9 60 -14 90 -12 71
-16 97 -30 197 -7 45 -18 87 -26 94 -15 12 -46 15 -259 23 -77 3 -206 8 -286
12 -114 4 -147 3 -156 -8z m362 -883 c14 -99 28 -191 30 -205 3 -14 8 -50 11
-80 3 -30 7 -57 9 -60 2 -3 7 -37 10 -75 4 -39 8 -72 10 -75 2 -3 6 -30 10
-60 3 -30 8 -62 10 -70 13 -50 15 -118 3 -122 -11 -3 -312 -2 -341 1 -5 1 -6
13 -3 29 5 24 166 769 183 847 4 17 7 32 8 35 2 15 18 31 25 23 5 -4 20 -89
35 -188z"/>
<path d="M365 3179 c-27 -5 -66 -11 -85 -14 -125 -18 -214 -35 -223 -44 -7 -7
-10 -332 -8 -1003 6 -2104 5 -2074 20 -2092 16 -19 4 -21 321 50 135 31 256
58 270 60 55 10 66 23 95 116 15 50 47 150 70 222 24 72 77 239 119 371 42
132 87 272 100 310 25 75 109 337 111 345 0 3 9 30 20 60 10 30 20 60 21 67 1
7 23 74 47 150 25 76 87 266 137 423 51 157 107 332 126 390 39 119 39 123 19
143 -11 12 -53 15 -224 15 -150 -1 -214 -4 -221 -12 -5 -7 -48 -124 -96 -262
-47 -137 -99 -285 -114 -329 -16 -44 -89 -252 -162 -462 -74 -215 -138 -383
-145 -383 -6 0 -14 4 -17 8 -6 9 -12 293 -31 1302 -9 469 -12 542 -20 563 -8
19 -45 21 -130 6z"/>
</g>
</svg>
