<svg width="30" height="31" viewBox="0 0 30 31" fill="none" xmlns="http://www.w3.org/2000/svg">
<path fill-rule="evenodd" clip-rule="evenodd" d="M15.0001 30.0338C23.1001 30.0338 29.6667 23.4671 29.6667 15.3671C29.6668 7.26715 23.1001 0.700479 15.0001 0.700478C6.90008 0.700478 0.333416 7.26714 0.333415 15.3671C0.333415 23.4671 6.90008 30.0338 15.0001 30.0338ZM17.9427 19.7578C18.1856 20.0093 18.32 20.3461 18.317 20.6957C18.3139 21.0453 18.1737 21.3797 17.9265 21.6269C17.6793 21.8741 17.3449 22.0143 16.9953 22.0174C16.6457 22.0204 16.3089 21.886 16.0574 21.6431L10.7241 16.3098C10.4741 16.0598 10.3337 15.7207 10.3337 15.3671C10.3337 15.0136 10.4741 14.6745 10.7241 14.4245L16.0574 9.09114C16.3089 8.84827 16.6457 8.71387 16.9953 8.71691C17.3449 8.71995 17.6793 8.86018 17.9265 9.10739C18.1737 9.3546 18.3139 9.68902 18.317 10.0386C18.32 10.3882 18.1856 10.725 17.9427 10.9765L13.5521 15.3671L17.9427 19.7578Z" fill="white"/>
</svg>
