<svg width="32" height="33" viewBox="0 0 32 33" fill="none"
    xmlns="http://www.w3.org/2000/svg">
    <g clip-path="url(#clip0_216_1657)">
        <path d="M19.0625 16.8672C19.0625 18.5586 17.6914 19.9297 16 19.9297C14.3086 19.9297 12.9375 18.5586 12.9375 16.8672C12.9375 15.1758 14.3086 13.8047 16 13.8047C17.6914 13.8047 19.0625 15.1758 19.0625 16.8672Z" fill="white"/>
        <path d="M23.1621 11.4487C23.0149 11.0498 22.78 10.6887 22.4749 10.3923C22.1785 10.0872 21.8176 9.85229 21.4185 9.70508C21.0947 9.57935 20.6084 9.42969 19.7126 9.38892C18.7437 9.34473 18.4531 9.33521 16 9.33521C13.5466 9.33521 13.2561 9.34448 12.2874 9.38867C11.3916 9.42969 10.905 9.57935 10.5815 9.70508C10.1824 9.85229 9.82129 10.0872 9.52515 10.3923C9.21997 10.6887 8.98511 11.0496 8.83765 11.4487C8.71191 11.7725 8.56226 12.259 8.52148 13.1548C8.47729 14.1235 8.46777 14.4141 8.46777 16.8674C8.46777 19.3206 8.47729 19.6111 8.52148 20.5801C8.56226 21.4758 8.71191 21.9622 8.83765 22.2859C8.98511 22.6851 9.21973 23.0459 9.5249 23.3423C9.82129 23.6475 10.1821 23.8823 10.5813 24.0295C10.905 24.1555 11.3916 24.3052 12.2874 24.3459C13.2561 24.3901 13.5464 24.3994 15.9998 24.3994C18.4534 24.3994 18.7439 24.3901 19.7124 24.3459C20.6082 24.3052 21.0947 24.1555 21.4185 24.0295C22.2197 23.7205 22.853 23.0872 23.1621 22.2859C23.2878 21.9622 23.4375 21.4758 23.4785 20.5801C23.5227 19.6111 23.532 19.3206 23.532 16.8674C23.532 14.4141 23.5227 14.1235 23.4785 13.1548C23.4377 12.259 23.2881 11.7725 23.1621 11.4487ZM16 21.585C13.3943 21.585 11.282 19.4729 11.282 16.8672C11.282 14.2615 13.3943 12.1494 16 12.1494C18.6055 12.1494 20.7178 14.2615 20.7178 16.8672C20.7178 19.4729 18.6055 21.585 16 21.585ZM20.9043 13.0654C20.2954 13.0654 19.8018 12.5718 19.8018 11.9629C19.8018 11.354 20.2954 10.8604 20.9043 10.8604C21.5132 10.8604 22.0068 11.354 22.0068 11.9629C22.0066 12.5718 21.5132 13.0654 20.9043 13.0654Z" fill="white"/>
        <path d="M16 0.867188C7.16479 0.867188 0 8.03198 0 16.8672C0 25.7024 7.16479 32.8672 16 32.8672C24.8352 32.8672 32 25.7024 32 16.8672C32 8.03198 24.8352 0.867188 16 0.867188ZM25.1321 20.655C25.0876 21.6331 24.9321 22.3008 24.7051 22.8853C24.2278 24.1194 23.2522 25.095 22.0181 25.5723C21.4338 25.7993 20.7659 25.9546 19.7881 25.9993C18.8083 26.0439 18.4954 26.0547 16.0002 26.0547C13.5049 26.0547 13.1921 26.0439 12.2122 25.9993C11.2344 25.9546 10.5664 25.7993 9.98218 25.5723C9.3689 25.3416 8.81372 24.98 8.35474 24.5125C7.88745 24.0537 7.52588 23.4983 7.29517 22.8853C7.06812 22.301 6.9126 21.6331 6.86816 20.6553C6.823 19.6753 6.8125 19.3623 6.8125 16.8672C6.8125 14.3721 6.823 14.0591 6.86792 13.0793C6.91235 12.1013 7.06763 11.4336 7.29468 10.8491C7.52539 10.2361 7.88721 9.68066 8.35474 9.22192C8.81348 8.75439 9.3689 8.39282 9.98193 8.16211C10.5664 7.93506 11.2341 7.77979 12.2122 7.73511C13.1919 7.69043 13.5049 7.67969 16 7.67969C18.4951 7.67969 18.8081 7.69043 19.7878 7.73535C20.7659 7.77979 21.4336 7.93506 22.0181 8.16187C22.6311 8.39258 23.1865 8.75439 23.6455 9.22192C24.1128 9.68091 24.4746 10.2361 24.7051 10.8491C24.9324 11.4336 25.0876 12.1013 25.1323 13.0793C25.177 14.0591 25.1875 14.3721 25.1875 16.8672C25.1875 19.3623 25.177 19.6753 25.1321 20.655Z" fill="white"/>
    </g>
    <defs>
        <clipPath id="clip0_216_1657">
            <rect width="32" height="32" fill="white" transform="translate(0 0.867188)"/>
        </clipPath>
    </defs>
</svg>
