<svg width="32" height="33" viewBox="0 0 32 33" fill="none"
    xmlns="http://www.w3.org/2000/svg">
    <g clip-path="url(#clip0_216_1661)">
        <path d="M16 0.867188C7.16479 0.867188 0 8.03198 0 16.8672C0 25.7024 7.16479 32.8672 16 32.8672C24.8352 32.8672 32 25.7024 32 16.8672C32 8.03198 24.8352 0.867188 16 0.867188ZM11.3506 25.0547H7.45386V13.3313H11.3506V25.0547ZM9.40234 11.7305H9.37695C8.06934 11.7305 7.22363 10.8303 7.22363 9.70532C7.22363 8.55493 8.09521 7.67969 9.42822 7.67969C10.7612 7.67969 11.5815 8.55493 11.6069 9.70532C11.6069 10.8303 10.7612 11.7305 9.40234 11.7305ZM25.4014 25.0547H21.5051V18.783C21.5051 17.2068 20.9409 16.1318 19.531 16.1318C18.4546 16.1318 17.8135 16.8569 17.5317 17.5569C17.4287 17.8074 17.4036 18.1575 17.4036 18.5078V25.0547H13.5071C13.5071 25.0547 13.5581 14.4312 13.5071 13.3313H17.4036V14.9912C17.9214 14.1924 18.8479 13.0562 20.9153 13.0562C23.479 13.0562 25.4014 14.7317 25.4014 18.3325V25.0547Z" fill="white"/>
    </g>
    <defs>
        <clipPath id="clip0_216_1661">
            <rect width="32" height="32" fill="white" transform="translate(0 0.867188)"/>
        </clipPath>
    </defs>
</svg>
