<svg width="32" height="33" viewBox="0 0 32 33" fill="none"
    xmlns="http://www.w3.org/2000/svg">
    <g clip-path="url(#clip0_216_1663)">
        <path d="M16 0.867188C7.16089 0.867188 0 8.02808 0 16.8672C0 25.7063 7.16089 32.8672 16 32.8672C24.8391 32.8672 32 25.7063 32 16.8672C32 8.02808 24.8391 0.867188 16 0.867188ZM23.1324 13.1765C23.1324 13.1765 23.6516 17.9125 19.9111 21.461C14.6702 26.4316 7.11111 22.5632 7.11111 22.5632C10.7449 22.6059 12.2809 21.077 12.2809 21.077C9.29422 20.565 8.99556 18.4316 8.99556 18.4316C9.50756 18.7516 10.624 18.4316 10.624 18.4316C7.296 16.9027 7.81511 14.8903 7.81511 14.8903C8.78222 15.4307 9.50756 15.2316 9.50756 15.2316C6.91911 12.9845 8.384 10.6023 8.384 10.6023C12.928 14.9259 15.8507 14.037 15.8507 14.037C15.6444 10.9934 17.4436 9.81297 19.3849 9.74897C21.0204 9.69208 21.9591 10.8299 21.9591 10.8299C23.2178 10.9365 24.3982 10.0974 24.3982 10.0974C24.2916 11.1143 22.912 11.9747 22.912 11.9747C23.6302 12.0387 24.8818 11.6476 24.8818 11.6476C24.2347 12.8352 23.1324 13.1765 23.1324 13.1765Z" fill="white"/>
    </g>
    <defs>
        <clipPath id="clip0_216_1663">
            <rect width="32" height="32" fill="white" transform="translate(0 0.867188)"/>
        </clipPath>
    </defs>
</svg>
